<?xml version="1.0" encoding="UTF-8" standalone="no"?>
<!-- Generator: Adobe Illustrator 15.0.2, SVG Export Plug-In . SVG Version: 6.00 Build 0)  -->

<svg
   xmlns:dc="http://purl.org/dc/elements/1.1/"
   xmlns:cc="http://creativecommons.org/ns#"
   xmlns:rdf="http://www.w3.org/1999/02/22-rdf-syntax-ns#"
   xmlns:svg="http://www.w3.org/2000/svg"
   xmlns="http://www.w3.org/2000/svg"
   xmlns:sodipodi="http://sodipodi.sourceforge.net/DTD/sodipodi-0.dtd"
   xmlns:inkscape="http://www.inkscape.org/namespaces/inkscape"
   version="1.1"
   id="Layer_1"
   x="0px"
   y="0px"
   width="218.44"
   height="106.87"
   viewBox="0 0 218.44002 106.87"
   enable-background="new 0 0 841.89 595.28"
   xml:space="preserve"
   inkscape:version="0.48.5 r10040"
   sodipodi:docname="Logo_Working-Papers.svg"><metadata
     id="metadata41"><rdf:RDF><cc:Work
         rdf:about=""><dc:format>image/svg+xml</dc:format><dc:type
           rdf:resource="http://purl.org/dc/dcmitype/StillImage" /><dc:title /></cc:Work></rdf:RDF></metadata><defs
     id="defs39" /><sodipodi:namedview
     pagecolor="#ffffff"
     bordercolor="#666666"
     borderopacity="1"
     objecttolerance="10"
     gridtolerance="10"
     guidetolerance="10"
     inkscape:pageopacity="0"
     inkscape:pageshadow="2"
     inkscape:window-width="1410"
     inkscape:window-height="855"
     id="namedview37"
     showgrid="true"
     showguides="true"
     inkscape:guide-bbox="true"
     fit-margin-top="0"
     fit-margin-left="0"
     fit-margin-right="0"
     fit-margin-bottom="0"
     inkscape:zoom="5.8258344"
     inkscape:cx="109.47646"
     inkscape:cy="50.70257"
     inkscape:window-x="30"
     inkscape:window-y="1"
     inkscape:window-maximized="1"
     inkscape:current-layer="Layer_1"><sodipodi:guide
       position="-118.43798,135.65247"
       orientation="1,0"
       id="guide4149" /><inkscape:grid
       type="xygrid"
       id="grid2999"
       empspacing="5"
       visible="true"
       enabled="true"
       snapvisiblegridlinesonly="true" /></sodipodi:namedview><g
     id="g3001"
     transform="translate(4.0000004,-2.0000002)"><g
       transform="matrix(0.41076045,0,0,0.41076045,-67.409897,-67.792826)"
       id="g3"><g
         id="g5"><path
           style="fill:#223366"
           inkscape:connector-curvature="0"
           id="path7"
           d="m 267.428,321.216 c 11.829,0 19.386,-6.98 19.386,-20.125 0,-12.979 -7.721,-19.963 -19.386,-19.963 l -8.789,0 0,40.088 8.789,0 z m -19.304,-45.754 c 0,-2.219 1.15,-3.451 3.367,-3.451 l 16.512,0 c 17.99,0 29.736,10.68 29.736,29.08 0,18.4 -11.746,29.244 -29.736,29.244 l -16.512,0 c -2.217,0 -3.367,-1.15 -3.367,-3.451 l 0,-51.422 z" /><path
           style="fill:#223366"
           inkscape:connector-curvature="0"
           id="path9"
           d="m 334.208,306.759 -5.175,-15.609 c -0.985,-3.285 -2.3,-9.035 -2.3,-9.035 l -0.165,0 c 0,0 -1.314,5.75 -2.3,9.035 l -5.258,15.609 15.198,0 z m -14.047,-31.955 c 0.657,-1.889 1.891,-2.793 3.861,-2.793 l 5.257,0 c 1.972,0 3.286,0.904 3.86,2.793 l 18.236,51.588 c 0.821,2.381 -0.246,3.943 -2.793,3.943 l -3.777,0 c -1.973,0 -3.287,-0.904 -3.861,-2.793 l -4.107,-12.158 -20.455,0 -4.025,12.076 c -0.574,1.971 -1.889,2.875 -3.86,2.875 l -3.778,0 c -2.547,0 -3.615,-1.563 -2.793,-3.943 l 18.235,-51.588 z" /><path
           style="fill:#223366"
           inkscape:connector-curvature="0"
           id="path11"
           d="m 379.464,299.366 c 5.668,0 9.201,-3.533 9.201,-9.283 0,-3.697 -1.396,-6.654 -4.6,-7.967 -1.396,-0.66 -3.204,-0.988 -6.326,-0.988 l -7.803,0 0,18.238 9.528,0 z m -20.043,-23.904 c 0,-2.219 1.15,-3.451 3.369,-3.451 l 15.771,0 c 5.75,0 8.625,0.492 11.089,1.561 5.915,2.465 9.776,8.051 9.776,15.936 0,6.9 -3.614,13.473 -9.693,15.938 l 0,0.164 c 0,0 0.74,0.904 1.889,3.039 l 9.612,17.58 c 1.396,2.381 0.326,4.107 -2.383,4.107 l -4.437,0 c -1.889,0 -3.119,-0.74 -4.025,-2.383 l -10.268,-19.385 -10.186,0 0,18.316 c 0,2.301 -1.15,3.451 -3.369,3.451 l -3.777,0 c -2.219,0 -3.369,-1.15 -3.369,-3.451 l 0,-51.422 z" /><path
           style="fill:#223366"
           inkscape:connector-curvature="0"
           id="path13"
           d="m 410.837,275.462 c 0,-2.219 1.151,-3.451 3.368,-3.451 l 3.78,0 c 2.218,0 3.367,1.232 3.367,3.451 l 0,51.422 c 0,2.301 -1.149,3.451 -3.367,3.451 l -3.78,0 c -2.217,0 -3.368,-1.15 -3.368,-3.451 l 0,-51.422 z" /><path
           style="fill:#223366"
           inkscape:connector-curvature="0"
           id="path15"
           d="m 461.683,306.759 -5.175,-15.609 c -0.985,-3.285 -2.3,-9.035 -2.3,-9.035 l -0.164,0 c 0,0 -1.314,5.75 -2.3,9.035 l -5.257,15.609 15.196,0 z m -14.046,-31.955 c 0.656,-1.889 1.89,-2.793 3.861,-2.793 l 5.256,0 c 1.974,0 3.288,0.904 3.86,2.793 l 18.236,51.588 c 0.821,2.381 -0.246,3.943 -2.793,3.943 l -3.777,0 c -1.971,0 -3.285,-0.904 -3.86,-2.793 l -4.106,-12.158 -20.455,0 -4.026,12.076 c -0.573,1.971 -1.888,2.875 -3.858,2.875 l -3.781,0 c -2.545,0 -3.613,-1.563 -2.791,-3.943 l 18.234,-51.588 z" /><path
           style="fill:#223366"
           inkscape:connector-curvature="0"
           id="path17"
           d="m 486.896,275.462 c 0,-2.219 1.15,-3.451 3.367,-3.451 l 3.78,0 c 2.218,0 3.367,1.232 3.367,3.451 l 0,21.275 26.696,0 0,-21.275 c 0,-2.219 1.151,-3.451 3.451,-3.451 l 3.697,0 c 2.219,0 3.367,1.232 3.367,3.451 l 0,51.422 c 0,2.301 -1.148,3.451 -3.367,3.451 l -3.697,0 c -2.3,0 -3.451,-1.15 -3.451,-3.451 l 0,-21.029 -26.696,0 0,21.029 c 0,2.301 -1.149,3.451 -3.367,3.451 l -3.78,0 c -2.217,0 -3.367,-1.15 -3.367,-3.451 l 0,-51.422 z" /><path
           style="fill:#223366"
           inkscape:connector-curvature="0"
           id="path19"
           d="m 546.117,307.991 0,-2.301 c 0,-2.217 1.231,-3.367 3.451,-3.367 l 17.823,0 c 2.221,0 3.453,1.15 3.453,3.367 l 0,2.301 c 0,2.299 -1.232,3.449 -3.453,3.449 l -17.823,0 c -2.219,0 -3.451,-1.15 -3.451,-3.449" /><path
           style="fill:#223366"
           inkscape:connector-curvature="0"
           id="path21"
           d="m 601.645,321.216 c 11.829,0 19.387,-6.98 19.387,-20.125 0,-12.979 -7.722,-19.963 -19.387,-19.963 l -8.79,0 0,40.088 8.79,0 z m -19.306,-45.754 c 0,-2.219 1.151,-3.451 3.368,-3.451 l 16.513,0 c 17.989,0 29.736,10.68 29.736,29.08 0,18.4 -11.747,29.244 -29.736,29.244 l -16.513,0 c -2.217,0 -3.368,-1.15 -3.368,-3.451 l 0,-51.422 z" /><path
           style="fill:#223366"
           inkscape:connector-curvature="0"
           id="path23"
           d="m 642.137,275.462 c 0,-2.219 1.151,-3.451 3.368,-3.451 l 28.093,0 c 2.22,0 3.451,1.232 3.451,3.451 l 0,2.299 c 0,2.219 -1.231,3.367 -3.451,3.367 l -20.945,0 0,15.279 16.265,0 c 2.217,0 3.449,1.15 3.449,3.369 l 0,2.301 c 0,2.299 -1.232,3.447 -3.449,3.447 l -16.265,0 0,15.691 22.26,0 c 2.22,0 3.452,1.15 3.452,3.367 l 0,2.301 c 0,2.301 -1.232,3.451 -3.452,3.451 l -29.407,0 c -2.217,0 -3.368,-1.15 -3.368,-3.451 l 0,-51.421 z" /><path
           style="fill:#424569"
           inkscape:connector-curvature="0"
           id="path25"
           d="m 213.113,198.907 c 0,-10.174 13.099,-16.463 21.722,-21.688 6.775,4.126 22.577,11.591 22.58,22.297 0.004,11.884 -4.943,31.255 -8.877,31.339 -4.279,0.094 -10.191,-24.552 -13.338,-24.487 -3.145,0.066 -9,24.587 -12.947,24.581 -4.285,-0.007 -9.14,-20.969 -9.14,-32.042" /><path
           style="fill:#737299"
           inkscape:connector-curvature="0"
           id="path27"
           d="m 178.023,256.302 c -9.676,-3.146 -11.608,-17.547 -13.913,-27.361 6.018,-5.17 18,-17.892 28.184,-14.587 11.303,3.67 28.197,14.358 27.061,18.128 -1.23,4.098 -26.499,2.105 -27.408,5.117 -0.912,3.012 20.601,16.158 19.375,19.912 -1.331,4.07 -22.766,2.211 -33.299,-1.209" /><path
           style="fill:#223366"
           inkscape:connector-curvature="0"
           id="path29"
           d="m 221.765,307.407 c -5.982,8.229 -20.272,5.617 -30.32,4.779 -3.058,-7.32 -11.452,-22.65 -5.164,-31.313 6.984,-9.615 22.371,-22.377 25.603,-20.135 3.517,2.436 -6.187,25.852 -3.601,27.648 2.582,1.799 21.734,-14.6 24.924,-12.273 3.46,2.523 -4.933,22.335 -11.442,31.294" /><path
           style="fill:#494e7d"
           inkscape:connector-curvature="0"
           id="path31"
           d="m 278.537,214.539 c 9.679,-3.144 19.706,7.37 27.341,13.958 -1.83,7.717 -4.046,25.053 -14.227,28.363 -11.303,3.678 -31.253,4.959 -32.549,1.244 -1.413,-4.041 20.199,-17.283 19.166,-20.254 -1.032,-2.971 -26.166,-0.961 -27.379,-4.717 -1.318,-4.079 17.12,-15.171 27.648,-18.594" /></g></g><text
       y="100.43177"
       x="34.068592"
       style="font-size:28.3917408px;font-style:normal;font-variant:normal;font-stretch:normal;fill:#223366;fill-opacity:1;font-family:WeblySleek UI;-inkscape-font-specification:WeblySleek UI Semi-Light"
       id="text35"
       font-size="29"><tspan
         id="tspan3024"
         style="font-size:27.412714px;font-style:normal;font-variant:normal;font-stretch:normal;font-family:WeblySleek UI;-inkscape-font-specification:WeblySleek UI Semi-Light">Working Papers</tspan></text>
</g></svg>